<mxfile host="app.diagrams.net" modified="2023-09-18T17:13:50.341Z" agent="Mozilla/5.0 (Windows NT 10.0; Win64; x64; rv:109.0) Gecko/20100101 Firefox/117.0" etag="Vla_U9mzJdV8Du5EPh3Y" version="21.7.5" type="github">
  <diagram name="Page-1" id="_dd1hdSCPyg6Porfe82x">
    <mxGraphModel dx="1262" dy="1692" grid="1" gridSize="10" guides="1" tooltips="1" connect="1" arrows="1" fold="1" page="1" pageScale="1" pageWidth="827" pageHeight="1169" math="0" shadow="0">
      <root>
        <mxCell id="0" />
        <mxCell id="1" parent="0" />
        <mxCell id="_dg19vDWBvNZbhOmvHKR-1" value="&lt;div&gt;&lt;b&gt;f1 : Function&lt;/b&gt;&lt;/div&gt;&lt;div align=&quot;left&quot;&gt;&lt;div&gt;id : 000&lt;/div&gt;&lt;div&gt;name : &quot;hghgh&quot;&lt;/div&gt;summary &quot;gfhg&quot;&lt;/div&gt;&lt;div&gt;&lt;br&gt;&lt;/div&gt;" style="whiteSpace=wrap;html=1;aspect=fixed;fillColor=#fad7ac;strokeColor=#b46504;" vertex="1" parent="1">
          <mxGeometry x="330" y="-130" width="110" height="110" as="geometry" />
        </mxCell>
        <mxCell id="_dg19vDWBvNZbhOmvHKR-12" style="edgeStyle=orthogonalEdgeStyle;rounded=0;orthogonalLoop=1;jettySize=auto;html=1;exitX=1;exitY=0.5;exitDx=0;exitDy=0;" edge="1" parent="1" source="_dg19vDWBvNZbhOmvHKR-2" target="_dg19vDWBvNZbhOmvHKR-4">
          <mxGeometry relative="1" as="geometry">
            <Array as="points">
              <mxPoint x="240" y="120" />
              <mxPoint x="240" y="120" />
            </Array>
          </mxGeometry>
        </mxCell>
        <mxCell id="_dg19vDWBvNZbhOmvHKR-13" style="edgeStyle=orthogonalEdgeStyle;rounded=0;orthogonalLoop=1;jettySize=auto;html=1;exitX=0.5;exitY=1;exitDx=0;exitDy=0;entryX=0;entryY=0.5;entryDx=0;entryDy=0;" edge="1" parent="1" source="_dg19vDWBvNZbhOmvHKR-2" target="_dg19vDWBvNZbhOmvHKR-5">
          <mxGeometry relative="1" as="geometry" />
        </mxCell>
        <mxCell id="_dg19vDWBvNZbhOmvHKR-18" style="edgeStyle=orthogonalEdgeStyle;rounded=0;orthogonalLoop=1;jettySize=auto;html=1;exitX=0.25;exitY=1;exitDx=0;exitDy=0;entryX=0;entryY=0.5;entryDx=0;entryDy=0;" edge="1" parent="1" source="_dg19vDWBvNZbhOmvHKR-2" target="_dg19vDWBvNZbhOmvHKR-3">
          <mxGeometry relative="1" as="geometry" />
        </mxCell>
        <mxCell id="_dg19vDWBvNZbhOmvHKR-2" value="&lt;div&gt;&lt;b&gt;fc1 : FuncChain&lt;/b&gt;&lt;/div&gt;&lt;div&gt;&lt;br&gt;&lt;/div&gt;&lt;div align=&quot;left&quot;&gt;id : 001&lt;/div&gt;&lt;div align=&quot;left&quot;&gt;name : &quot;hghgh&quot;&lt;/div&gt;&lt;div align=&quot;left&quot;&gt;summary &quot;gfhg&quot;&lt;br&gt;&lt;/div&gt;" style="whiteSpace=wrap;html=1;aspect=fixed;" vertex="1" parent="1">
          <mxGeometry x="80" y="136" width="120" height="120" as="geometry" />
        </mxCell>
        <mxCell id="_dg19vDWBvNZbhOmvHKR-3" value="&lt;div&gt;&lt;b&gt;fx1 : FunctExchange&lt;/b&gt;&lt;/div&gt;&lt;div&gt;&lt;div align=&quot;left&quot;&gt;&lt;div&gt;id : 008&lt;/div&gt;&lt;div&gt;name : &quot;gkjh&quot;&lt;/div&gt;summary &quot;abc&quot;&lt;/div&gt;&lt;/div&gt;" style="whiteSpace=wrap;html=1;aspect=fixed;" vertex="1" parent="1">
          <mxGeometry x="181" y="460" width="110" height="110" as="geometry" />
        </mxCell>
        <mxCell id="_dg19vDWBvNZbhOmvHKR-14" style="edgeStyle=orthogonalEdgeStyle;rounded=0;orthogonalLoop=1;jettySize=auto;html=1;exitX=0.5;exitY=0;exitDx=0;exitDy=0;entryX=0.5;entryY=1;entryDx=0;entryDy=0;" edge="1" parent="1" source="_dg19vDWBvNZbhOmvHKR-4" target="_dg19vDWBvNZbhOmvHKR-1">
          <mxGeometry relative="1" as="geometry" />
        </mxCell>
        <mxCell id="_dg19vDWBvNZbhOmvHKR-4" value="&lt;div&gt;&lt;b&gt;&lt;font style=&quot;font-size: 12px;&quot;&gt;fch1 : FuncChainInvolemvement_function&lt;/font&gt;&lt;/b&gt;&lt;/div&gt;&lt;div align=&quot;left&quot;&gt;&lt;div&gt;id : 002&lt;/div&gt;&lt;div&gt;name : &quot;gkjh&quot;&lt;/div&gt;summary &quot;abc&quot;&lt;/div&gt;" style="whiteSpace=wrap;html=1;aspect=fixed;rounded=1;" vertex="1" parent="1">
          <mxGeometry x="304" y="100" width="120" height="120" as="geometry" />
        </mxCell>
        <mxCell id="_dg19vDWBvNZbhOmvHKR-27" style="edgeStyle=orthogonalEdgeStyle;rounded=0;orthogonalLoop=1;jettySize=auto;html=1;exitX=1;exitY=0.25;exitDx=0;exitDy=0;entryX=0.507;entryY=1.033;entryDx=0;entryDy=0;entryPerimeter=0;" edge="1" parent="1" source="_dg19vDWBvNZbhOmvHKR-5" target="_dg19vDWBvNZbhOmvHKR-11">
          <mxGeometry relative="1" as="geometry">
            <Array as="points">
              <mxPoint x="640" y="533" />
              <mxPoint x="640" y="428" />
              <mxPoint x="511" y="428" />
            </Array>
          </mxGeometry>
        </mxCell>
        <mxCell id="_dg19vDWBvNZbhOmvHKR-5" value="&lt;div&gt;&lt;b&gt;fch2 : FuncChainInvolemvement_exchange&lt;/b&gt;&lt;/div&gt;&lt;div align=&quot;left&quot;&gt;&lt;div&gt;id : 003&lt;/div&gt;&lt;div&gt;name : &quot;uoiuou&quot;&lt;/div&gt;summary &quot;jhjjh&quot;&lt;/div&gt;" style="whiteSpace=wrap;html=1;aspect=fixed;" vertex="1" parent="1">
          <mxGeometry x="450" y="540" width="150" height="150" as="geometry" />
        </mxCell>
        <mxCell id="_dg19vDWBvNZbhOmvHKR-6" value="&lt;div&gt;&lt;b&gt;f2 : Function&lt;/b&gt;&lt;/div&gt;&lt;div&gt;&lt;div align=&quot;left&quot;&gt;id : 007&lt;/div&gt;&lt;div align=&quot;left&quot;&gt;name : &quot;hghgh&quot;&lt;/div&gt;summary &quot;gfhg&quot;&lt;/div&gt;" style="whiteSpace=wrap;html=1;aspect=fixed;" vertex="1" parent="1">
          <mxGeometry x="850" y="410" width="100" height="100" as="geometry" />
        </mxCell>
        <mxCell id="_dg19vDWBvNZbhOmvHKR-26" style="edgeStyle=orthogonalEdgeStyle;rounded=0;orthogonalLoop=1;jettySize=auto;html=1;exitX=0.5;exitY=0;exitDx=0;exitDy=0;entryX=1;entryY=0.75;entryDx=0;entryDy=0;" edge="1" parent="1" source="_dg19vDWBvNZbhOmvHKR-8" target="_dg19vDWBvNZbhOmvHKR-4">
          <mxGeometry relative="1" as="geometry" />
        </mxCell>
        <mxCell id="_dg19vDWBvNZbhOmvHKR-8" value="&lt;b&gt;obj&lt;/b&gt;" style="swimlane;fontStyle=0;childLayout=stackLayout;horizontal=1;startSize=30;horizontalStack=0;resizeParent=1;resizeParentMax=0;resizeLast=0;collapsible=1;marginBottom=0;whiteSpace=wrap;html=1;" vertex="1" parent="1">
          <mxGeometry x="440" y="220" width="140" height="110" as="geometry" />
        </mxCell>
        <mxCell id="_dg19vDWBvNZbhOmvHKR-11" value="&lt;br&gt;&lt;div align=&quot;left&quot;&gt;id : 004&lt;/div&gt;&lt;div align=&quot;left&quot;&gt;name : &quot;hghgh&quot;&lt;/div&gt;&lt;div align=&quot;left&quot;&gt;summary &quot;gfhg&quot;&lt;/div&gt;&lt;br&gt;" style="text;strokeColor=none;fillColor=none;align=left;verticalAlign=middle;spacingLeft=4;spacingRight=4;overflow=hidden;points=[[0,0.5],[1,0.5]];portConstraint=eastwest;rotatable=0;whiteSpace=wrap;html=1;" vertex="1" parent="_dg19vDWBvNZbhOmvHKR-8">
          <mxGeometry y="30" width="140" height="80" as="geometry" />
        </mxCell>
        <mxCell id="_dg19vDWBvNZbhOmvHKR-19" value="&lt;div&gt;&lt;b&gt;output&lt;/b&gt;&lt;/div&gt;&lt;div&gt;&lt;div align=&quot;left&quot;&gt;id : 005&lt;/div&gt;&lt;div align=&quot;left&quot;&gt;name : &quot;hghgh&quot;&lt;/div&gt;summary &quot;gfhg&quot;&lt;/div&gt;" style="whiteSpace=wrap;html=1;aspect=fixed;" vertex="1" parent="1">
          <mxGeometry x="690" y="120" width="110" height="110" as="geometry" />
        </mxCell>
        <mxCell id="_dg19vDWBvNZbhOmvHKR-25" style="edgeStyle=orthogonalEdgeStyle;rounded=0;orthogonalLoop=1;jettySize=auto;html=1;exitX=1;exitY=0.5;exitDx=0;exitDy=0;entryX=0;entryY=0.5;entryDx=0;entryDy=0;" edge="1" parent="1" source="_dg19vDWBvNZbhOmvHKR-20" target="_dg19vDWBvNZbhOmvHKR-6">
          <mxGeometry relative="1" as="geometry" />
        </mxCell>
        <mxCell id="_dg19vDWBvNZbhOmvHKR-20" value="&lt;div&gt;&lt;b&gt;input&lt;/b&gt;&lt;/div&gt;&lt;div&gt;&lt;div align=&quot;left&quot;&gt;id : 006&lt;/div&gt;&lt;div align=&quot;left&quot;&gt;name : &quot;hghgh&quot;&lt;/div&gt;summary &quot;gfhg&quot;&lt;/div&gt;" style="whiteSpace=wrap;html=1;aspect=fixed;" vertex="1" parent="1">
          <mxGeometry x="650" y="320" width="110" height="110" as="geometry" />
        </mxCell>
        <mxCell id="_dg19vDWBvNZbhOmvHKR-23" value="source" style="text;html=1;align=center;verticalAlign=middle;resizable=0;points=[];autosize=1;strokeColor=none;fillColor=none;" vertex="1" parent="1">
          <mxGeometry x="430" y="186" width="60" height="30" as="geometry" />
        </mxCell>
        <mxCell id="_dg19vDWBvNZbhOmvHKR-24" value="target" style="text;html=1;align=center;verticalAlign=middle;resizable=0;points=[];autosize=1;strokeColor=none;fillColor=none;" vertex="1" parent="1">
          <mxGeometry x="440" y="330" width="50" height="30" as="geometry" />
        </mxCell>
        <mxCell id="_dg19vDWBvNZbhOmvHKR-29" style="edgeStyle=orthogonalEdgeStyle;rounded=0;orthogonalLoop=1;jettySize=auto;html=1;exitX=1;exitY=0.5;exitDx=0;exitDy=0;entryX=0;entryY=0.5;entryDx=0;entryDy=0;" edge="1" parent="1" source="_dg19vDWBvNZbhOmvHKR-11" target="_dg19vDWBvNZbhOmvHKR-19">
          <mxGeometry relative="1" as="geometry" />
        </mxCell>
        <mxCell id="_dg19vDWBvNZbhOmvHKR-30" style="edgeStyle=orthogonalEdgeStyle;rounded=0;orthogonalLoop=1;jettySize=auto;html=1;exitX=1;exitY=0.5;exitDx=0;exitDy=0;" edge="1" parent="1" source="_dg19vDWBvNZbhOmvHKR-11" target="_dg19vDWBvNZbhOmvHKR-20">
          <mxGeometry relative="1" as="geometry" />
        </mxCell>
      </root>
    </mxGraphModel>
  </diagram>
</mxfile>
